<?xml version="1.0" standalone="no"?>
<!DOCTYPE svg PUBLIC "-//W3C//DTD SVG 20010904//EN"
 "http://www.w3.org/TR/2001/REC-SVG-20010904/DTD/svg10.dtd">
<svg version="1.0" xmlns="http://www.w3.org/2000/svg"
 width="640.000000pt" height="640.000000pt" viewBox="0 0 640.000000 640.000000"
 preserveAspectRatio="xMidYMid meet">

<g transform="translate(0.000000,640.000000) scale(0.100000,-0.100000)"
fill="#FFFFFF" stroke="none">
<path d="M1515 6391 c-3 -6 -27 -13 -53 -16 -272 -36 -570 -166 -797 -348
-350 -281 -582 -676 -640 -1089 -3 -26 -10 -50 -16 -53 -12 -8 -12 -3375 0
-3375 6 0 13 -21 16 -48 19 -133 80 -346 124 -429 5 -10 25 -51 45 -91 44 -89
121 -206 192 -292 285 -347 643 -554 1079 -625 22 -4 45 -11 51 -16 18 -14
3359 -6 3409 8 22 7 87 22 145 34 354 74 701 296 958 614 45 55 182 266 182
279 0 3 16 40 36 83 64 138 124 339 124 415 0 13 7 36 15 52 13 25 15 237 15
1707 0 1039 -4 1680 -9 1684 -6 3 -13 27 -16 53 -20 150 -89 370 -154 492
-109 203 -182 302 -340 460 -167 166 -283 249 -476 340 -163 78 -302 120 -472
146 -24 3 -43 10 -43 15 0 12 -3367 12 -3375 0z m410 -1320 c47 -11 118 -30
192 -52 18 -6 54 -14 80 -18 60 -10 129 -28 211 -52 34 -10 73 -19 87 -19 13
0 26 -4 30 -9 3 -6 27 -13 53 -17 26 -3 52 -11 59 -16 6 -5 33 -13 60 -18 69
-13 165 -39 185 -50 10 -6 27 -10 39 -10 11 0 35 -6 52 -14 46 -20 167 -56
191 -56 12 0 30 -7 40 -15 11 -8 32 -15 46 -15 14 0 31 -5 37 -11 6 -6 29 -15
50 -19 42 -9 290 -93 340 -116 17 -8 39 -14 50 -14 10 0 27 -7 37 -15 11 -8
27 -15 37 -15 14 0 54 -15 134 -50 11 -5 43 -18 70 -30 28 -11 57 -25 66 -30
9 -5 33 -12 52 -15 20 -4 41 -13 48 -21 6 -8 15 -14 20 -14 9 0 129 -55 237
-109 112 -56 127 -64 132 -71 3 -4 17 -10 33 -14 15 -3 27 -11 27 -16 0 -6 6
-10 13 -10 7 0 37 -16 67 -36 30 -20 72 -46 95 -59 22 -13 49 -32 60 -42 11
-10 39 -31 62 -46 60 -41 193 -172 252 -248 46 -60 121 -195 121 -217 0 -5 7
-23 16 -41 24 -48 23 -306 -1 -364 -34 -85 -90 -193 -120 -232 -56 -75 -139
-170 -170 -195 -17 -14 -40 -34 -51 -45 -11 -11 -33 -29 -48 -40 -16 -11 -36
-27 -45 -36 -30 -28 -99 -79 -108 -79 -5 0 -16 -9 -26 -20 -9 -11 -24 -20 -32
-20 -8 0 -15 -3 -15 -7 0 -8 -28 -26 -100 -66 -19 -11 -57 -34 -85 -51 -79
-49 -87 -54 -140 -81 -27 -15 -68 -36 -90 -48 -22 -13 -53 -30 -70 -39 -35
-19 -237 -114 -280 -132 -33 -14 -175 -81 -217 -102 -14 -8 -35 -14 -46 -14
-11 0 -25 -7 -32 -15 -7 -8 -19 -15 -27 -15 -8 0 -27 -6 -41 -14 -23 -12 -50
-23 -157 -67 -11 -4 -44 -17 -72 -28 -29 -12 -77 -30 -105 -42 -29 -11 -62
-24 -73 -29 -11 -4 -49 -18 -85 -31 -36 -12 -70 -26 -77 -32 -7 -5 -27 -13
-45 -17 -18 -5 -58 -18 -88 -30 -30 -12 -72 -26 -93 -31 -21 -5 -45 -13 -55
-18 -34 -17 -128 -51 -142 -51 -8 0 -24 -7 -34 -15 -11 -8 -31 -15 -44 -15
-13 0 -33 -5 -45 -12 -12 -6 -35 -15 -52 -19 -43 -11 -117 -37 -137 -49 -10
-6 -28 -10 -41 -10 -12 0 -31 -6 -42 -14 -11 -7 -38 -16 -60 -20 -22 -4 -56
-13 -75 -20 -55 -21 -145 -46 -167 -46 -25 0 -127 33 -168 54 -37 19 -93 71
-121 111 -38 56 -54 112 -54 195 0 90 16 142 65 207 63 83 127 118 315 173 41
12 84 26 95 30 11 5 36 12 55 16 19 3 40 10 45 14 6 4 44 18 85 31 41 12 84
29 95 36 11 7 29 13 40 13 11 0 52 12 90 26 39 14 84 30 100 36 17 6 35 14 40
18 6 4 25 11 43 15 18 4 45 13 60 21 15 8 32 14 39 14 7 0 27 6 45 14 18 8 51
21 73 29 22 9 67 26 100 38 33 13 64 27 70 31 5 4 15 8 23 8 7 0 53 16 100 36
48 20 105 43 127 51 22 9 67 28 100 44 33 15 85 37 115 49 30 12 114 51 187
86 73 35 139 64 147 64 8 0 17 4 20 9 3 5 59 35 123 67 65 32 123 63 130 70 7
6 32 22 55 34 24 12 57 30 73 41 17 10 41 24 55 29 13 6 27 15 30 19 3 5 37
29 75 54 39 25 82 55 96 68 15 13 54 48 88 78 115 101 111 114 -69 254 -34 27
-130 87 -138 87 -5 0 -20 8 -33 19 -34 26 -137 81 -153 81 -7 0 -19 7 -26 15
-7 8 -19 15 -28 15 -8 0 -23 6 -31 13 -9 7 -36 22 -61 32 -25 10 -78 34 -118
52 -40 18 -76 33 -81 33 -5 0 -24 8 -43 17 -61 30 -68 33 -146 58 -42 14 -86
30 -97 35 -31 16 -185 71 -228 81 -21 5 -45 13 -55 18 -9 5 -51 19 -92 31 -41
12 -82 26 -91 31 -9 4 -34 11 -54 15 -21 4 -50 13 -64 20 -14 8 -33 14 -41 14
-13 0 -45 9 -145 41 -16 6 -75 21 -130 35 -55 14 -109 29 -120 34 -11 5 -31
11 -45 15 -27 6 -91 24 -179 49 -29 9 -66 16 -82 16 -15 0 -43 6 -61 14 -45
19 -164 49 -318 81 -125 25 -173 49 -243 118 -73 73 -91 121 -92 242 0 95 2
103 34 159 30 56 104 135 125 136 5 0 17 6 25 14 46 41 166 52 276 27z"/>
</g>
</svg>
    